# xmcd
#
# Track frame offsets: 
#        150
#        17967
#        35977
#        50057
#        64042
#        86282
#        101080
#        116080
#        134520
#        153202
#        171192
#
# Disc length: 2500 seconds
#
# Revision: 2
# Processed by: cddbd v1.5.2PL0 Copyright (c) Steve Scherf et al.
# Submitted via: ExactAudioCopy v1.0b3
#
DISCID=9809c20b
DTITLE=Elle Varner - Perfectly Imperfect
DYEAR=2012
DGENRE=Soul
TTITLE0=I Only Wanna Give It To You (feat. J. Cole)
TTITLE1=Refill
TTITLE2=Sound Proof Room
TTITLE3=I Don't Care
TTITLE4=Not Tonight
TTITLE5=Leaf
TTITLE6=Oh What A Night
TTITLE7=Stop The Clock
TTITLE8=Welcome Home
TTITLE9=Damn Good Friends
TTITLE10=So Fly
EXTD=
EXTT0=
EXTT1=
EXTT2=
EXTT3=
EXTT4=
EXTT5=
EXTT6=
EXTT7=
EXTT8=
EXTT9=
EXTT10=
PLAYORDER=
